<?xml version="1.0" encoding="UTF-8"?>
<svg width="633px" height="206px" viewBox="0 0 633 206" version="1.1" xmlns="http://www.w3.org/2000/svg" xmlns:xlink="http://www.w3.org/1999/xlink">
    <title>logo / big / owddm-outline</title>
    <g id="logo-/-big-/-owddm-outline" stroke="none" stroke-width="1" fill="none" fill-rule="evenodd">
        <polygon id="background" fill="#FFFFFF" points="374.969374 47.5 374.969374 74.5 623.072112 74.5 623.072112 131.318041 316.071374 131.318 316.072112 159.5 163.072112 159.5 163.071374 104.318 162.969374 104.318041 162.969374 47.5"></polygon>
        <g id="Group" transform="translate(10.000000, 10.000000)">
            <polygon id="hex" fill="#ED1F24" points="80 0 160 46.5 160 139.5 80 186 1.04688288e-14 139.5 0 46.5"></polygon>
            <polygon id="slash" fill="#FFFFFF" points="91.4436542 66.6096344 100.895864 66.6096344 70.5484138 119.65589 61.0962037 119.65589"></polygon>
            <polyline id="arrow-left" fill="#FFFFFF" points="27.0551173 89.8389094 54.3154267 78.0130975 54.3154267 85.8417519 35.274884 93.0509108 35.274884 93.1610382 54.3154267 100.370197 54.3154267 108.198852 27.0551173 96.3730396"></polyline>
            <polyline id="arrow-right" fill="#FFFFFF" transform="translate(119.286536, 93.161038) scale(-1, 1) translate(-119.286536, -93.161038) " points="105.656381 89.8939731 132.916691 78.0681611 132.916691 85.8968156 113.876148 93.1059745 113.876148 93.2161019 132.916691 100.425261 132.916691 108.253915 105.656381 96.4281033"></polyline>
        </g>
        <path d="M194.111813,83.803267 C195.955446,83.803267 197.582489,83.3303149 198.99294,82.3844105 C200.403391,81.4385062 201.506965,80.1111205 202.303662,78.4022536 C203.100358,76.6933867 203.498706,74.6956658 203.498706,72.4090909 C203.498706,70.1225161 203.100358,68.1247952 202.303662,66.4159282 C201.506965,64.7070613 200.403391,63.3796757 198.99294,62.4337713 C197.582489,61.487867 195.955446,61.0149148 194.111813,61.0149148 C192.268066,61.0149148 190.640996,61.4890798 189.230601,62.4374098 C187.820206,63.3857399 186.716661,64.7131255 185.919964,66.4195668 C185.123267,68.126008 184.724919,70.1225161 184.724919,72.4090909 C184.724919,74.6908144 185.122055,76.6861096 185.916325,78.3949765 C186.710596,80.1038435 187.812957,81.4324419 189.223409,82.380772 C190.63386,83.329102 192.263328,83.803267 194.111813,83.803267 Z M194.111813,82.5035511 C192.532861,82.5035511 191.137472,82.0883641 189.925644,81.2579901 C188.713817,80.427616 187.765515,79.2566588 187.080739,77.7451186 C186.395962,76.2335783 186.053574,74.4549024 186.053574,72.4090909 C186.053574,70.3439867 186.399573,68.5556927 187.09157,67.0442089 C187.783567,65.532725 188.735479,64.366591 189.947306,63.5458069 C191.159134,62.7250227 192.547302,62.3146307 194.111813,62.3146307 C195.681062,62.3146307 197.0716,62.7274202 198.283427,63.5529993 C199.495254,64.3785784 200.445953,65.5471099 201.135525,67.0585937 C201.825096,68.5700776 202.169933,70.3535767 202.169933,72.4090909 C202.174734,74.4646052 201.832373,76.2481042 201.142802,77.7595881 C200.45323,79.2710719 199.501318,80.4396034 198.287066,81.2651825 C197.072813,82.0907616 195.681062,82.5035511 194.111813,82.5035511 Z M214.99382,83.8609758 C216.495827,83.8609758 217.799802,83.5950248 218.905745,83.0631228 C220.011688,82.5312209 220.866121,81.8031487 221.469045,80.8789062 C222.071969,79.9546638 222.373431,78.9076705 222.373431,77.7379261 C222.373431,76.9339526 222.227805,76.2263013 221.936554,75.6149722 C221.645302,75.0036432 221.237928,74.4687232 220.714431,74.0102123 C220.190935,73.5517014 219.57718,73.1551583 218.873167,72.820583 C218.169154,72.4860077 217.400776,72.1947845 216.568033,71.9469133 L214.141897,71.2247925 C213.475228,71.0250965 212.863899,70.7910743 212.30791,70.5227259 C211.75192,70.2543774 211.270534,69.9426769 210.863753,69.5876243 C210.456971,69.2325717 210.143465,68.8257899 209.923235,68.3672791 C209.703006,67.9087682 209.592891,67.3931126 209.592891,66.8203125 C209.592891,65.9346554 209.831765,65.1476334 210.309512,64.4592465 C210.787259,63.7708597 211.444337,63.2293114 212.280747,62.8346017 C213.117158,62.4398919 214.074485,62.2425371 215.15273,62.2425371 C216.746123,62.2425371 218.047052,62.6685269 219.055517,63.5205064 C220.063981,64.372486 220.625979,65.4868626 220.741509,66.8636364 L222.070164,66.8636364 C222.010029,65.7299953 221.683295,64.720318 221.089961,63.8346044 C220.496627,62.9488909 219.694515,62.2526911 218.683625,61.746005 C217.672735,61.2393188 216.505417,60.9859758 215.181669,60.9859758 C213.867512,60.9859758 212.688742,61.238106 211.645359,61.7423664 C210.601976,62.2466269 209.77761,62.9410215 209.17226,63.8255504 C208.566911,64.7100793 208.264236,65.7227746 208.264236,66.8636364 C208.264236,68.2187482 208.72035,69.3512046 209.632576,70.2610057 C210.544803,71.1708069 211.869763,71.8916866 213.607456,72.423645 L216.192503,73.2034746 C217.251569,73.5210701 218.140921,73.8820459 218.860559,74.2864019 C219.580198,74.690758 220.124144,75.1709308 220.492397,75.7269204 C220.860649,76.28291 221.044776,76.9484503 221.044776,77.7235413 C221.044776,78.6909947 220.788443,79.5399845 220.275777,80.2705106 C219.763112,81.0010367 219.051878,81.5702829 218.142077,81.9782493 C217.232276,82.3862157 216.182857,82.5901989 214.99382,82.5901989 C213.886692,82.5901989 212.90412,82.4090622 212.046105,82.046789 C211.188089,81.6845158 210.500943,81.1694243 209.984667,80.5015148 C209.468391,79.8336052 209.17415,79.0423806 209.101944,78.1278409 L207.715411,78.1278409 C207.792469,79.2542614 208.137283,80.2483127 208.749853,81.1099951 C209.362423,81.9716774 210.198805,82.6455947 211.258998,83.1317472 C212.319192,83.6178996 213.564132,83.8609758 214.99382,83.8609758 Z M226.864759,83.5 L229.394374,76.41 L239.035374,76.41 L241.565934,83.5 L242.995622,83.5 L234.995092,61.3181818 L233.435433,61.3181818 L225.434903,83.5 L226.864759,83.5 Z M238.586374,75.153 L229.843374,75.153 L234.157553,63.0656905 L234.27314,63.0656905 L238.586374,75.153 Z M248.483441,83.5 L248.483441,76.2792996 L251.631529,72.7846208 L260.354011,83.5 L262.043811,83.5 L252.498007,71.8169417 L262.130458,61.3181818 L260.325072,61.3181818 L248.627798,74.1997542 L248.483441,74.1997542 L248.483441,61.3181818 L247.125848,61.3181818 L247.125848,83.5 L248.483441,83.5 Z M265.437557,83.5 L267.967374,76.41 L277.608374,76.41 L280.138732,83.5 L281.56842,83.5 L273.56789,61.3181818 L272.008231,61.3181818 L264.007701,83.5 L265.437557,83.5 Z M277.159374,75.153 L268.416374,75.153 L272.730351,63.0656905 L272.845938,63.0656905 L277.159374,75.153 Z M299.518958,83.5 L304.905671,63.542253 L305.021089,63.542253 L310.407633,83.5 L311.967461,83.5 L318.061572,61.3181818 L316.660823,61.3181818 L311.24534,81.4059004 L311.115369,81.4059004 L305.786533,61.3181818 L304.140227,61.3181818 L298.811391,81.4059004 L298.68142,81.4059004 L293.265937,61.3181818 L291.865019,61.3181818 L297.959299,83.5 L299.518958,83.5 Z M334.669123,83.5 L334.669123,82.243608 L323.419473,82.243608 L323.419473,73.0301791 L333.744937,73.0301791 L333.744937,71.7736178 L323.419473,71.7736178 L323.419473,62.5745739 L334.40918,62.5745739 L334.40918,61.3181818 L322.061879,61.3181818 L322.061879,83.5 L334.669123,83.5 Z M347.796328,83.5 C349.226016,83.5 350.424642,83.2568956 351.392209,82.7706868 C352.359775,82.2844779 353.087847,81.6093477 353.576425,80.7452961 C354.065003,79.8812445 354.309292,78.8835828 354.309292,77.752311 C354.309292,76.6740658 354.108327,75.7305871 353.706397,74.921875 C353.304467,74.1131629 352.774962,73.472923 352.117883,73.0011555 C351.460805,72.529388 350.751997,72.2646216 349.99146,72.2068565 L349.99146,72.0768849 C350.679791,71.8988509 351.283307,71.5847811 351.802008,71.1346755 C352.32071,70.6845699 352.723853,70.1129261 353.011438,69.4197443 C353.299023,68.7265625 353.442815,67.9322917 353.442815,67.0369318 C353.442815,65.8960701 353.203349,64.8966032 352.724418,64.0385312 C352.245486,63.1804592 351.54387,62.5125497 350.619572,62.0348025 C349.695273,61.5570554 348.561603,61.3181818 347.218564,61.3181818 L340.012417,61.3181818 L340.012417,83.5 L347.796328,83.5 Z M341.370011,71.6147073 L341.370011,62.5745739 L347.218564,62.5745739 C348.787926,62.5745739 349.998596,62.9747273 350.850576,63.7750341 C351.702555,64.575341 352.128545,65.6626402 352.128545,67.0369318 C352.128545,67.8841164 351.953445,68.6542996 351.603243,69.3474815 C351.253042,70.0406633 350.747597,70.5918297 350.086908,71.0009807 C349.426219,71.4101317 348.624164,71.6147073 347.680741,71.6147073 L341.370011,71.6147073 Z M341.370011,82.243608 L341.370011,72.8568837 L347.839652,72.8568837 C348.860132,72.8568837 349.756676,73.070485 350.529285,73.4976876 C351.301894,73.9248902 351.906003,74.5073367 352.341611,75.245027 C352.777218,75.9827173 352.995022,76.8184787 352.995022,77.752311 C352.995022,79.0736889 352.545566,80.1525828 351.646652,80.9889929 C350.747738,81.8254029 349.464297,82.243608 347.796328,82.243608 L341.370011,82.243608 Z M192.436567,114.5 C194.689408,114.5 196.626712,114.056297 198.24848,113.168891 C199.870248,112.281485 201.116514,111.007775 201.987279,109.34776 C202.858043,107.687746 203.293426,105.702435 203.293426,103.391829 C203.293426,101.086977 202.85841,99.1074205 201.988379,97.4531597 C201.118348,95.7988989 199.877864,94.529504 198.266927,93.6449751 C196.65599,92.7604463 194.735665,92.3181818 192.505953,92.3181818 L184.577686,92.3181818 L184.577686,114.5 L192.436567,114.5 Z M189.265294,110.479681 L189.265294,96.338501 L192.254641,96.338501 C193.641004,96.338501 194.806066,96.5840311 195.749827,97.0750913 C196.693588,97.5661515 197.406993,98.3308346 197.890043,99.3691406 C198.373093,100.407447 198.614618,101.748343 198.614618,103.391829 C198.614618,105.040956 198.373798,106.386873 197.892158,107.429579 C197.410519,108.472285 196.695675,109.241312 195.747627,109.73666 C194.799579,110.232007 193.62944,110.479681 192.237209,110.479681 L189.265294,110.479681 Z M221.749381,114.5 L221.749381,110.635545 L211.447102,110.635545 L211.447102,105.332603 L220.935028,105.332603 L220.935028,101.468148 L211.447102,101.468148 L211.447102,96.1826366 L221.706057,96.1826366 L221.706057,92.3181818 L206.759493,92.3181818 L206.759493,114.5 L221.749381,114.5 Z M233.654828,114.811898 C235.462923,114.811898 237.007802,114.539685 238.289466,113.99526 C239.571131,113.450835 240.553477,112.681836 241.236505,111.688264 C241.919532,110.694692 242.263246,109.520633 242.267646,108.166085 C242.263246,107.243309 242.096777,106.4245 241.768237,105.709656 C241.439698,104.994812 240.977943,104.37347 240.382974,103.84563 C239.788004,103.317789 239.086163,102.87262 238.277451,102.510121 C237.468739,102.147622 236.580599,101.858063 235.613033,101.641443 L233.620135,101.164881 C233.139286,101.056571 232.685852,100.925895 232.259834,100.772851 C231.833816,100.619807 231.457609,100.436781 231.131213,100.223772 C230.804818,100.010763 230.550995,99.7558682 230.369746,99.4590884 C230.188496,99.1623087 230.102215,98.8153511 230.110903,98.4182157 C230.11519,97.9401865 230.255259,97.5141403 230.53111,97.1400771 C230.806961,96.7660139 231.20954,96.4710393 231.738847,96.2551533 C232.268155,96.0392673 232.915502,95.9313244 233.68089,95.9313244 C234.802911,95.9313244 235.692827,96.1739493 236.350639,96.6591991 C237.008451,97.1444489 237.380681,97.8231895 237.467328,98.6954207 L241.964379,98.6954207 C241.945538,97.3769762 241.592065,96.2155526 240.90396,95.2111497 C240.215855,94.2067469 239.257315,93.4229403 238.028339,92.8597301 C236.799362,92.2965199 235.361777,92.0149148 233.715583,92.0149148 C232.096692,92.0149148 230.652197,92.2957865 229.382097,92.8575301 C228.111997,93.4192736 227.113376,94.2030801 226.386235,95.2089497 C225.659093,96.2148192 225.297723,97.3885406 225.302123,98.7301136 C225.297723,100.367733 225.836704,101.671398 226.919068,102.641108 C228.001431,103.610818 229.478419,104.323123 231.350033,104.778023 L233.767538,105.375927 C234.573317,105.570884 235.255668,105.78787 235.814591,106.026885 C236.373514,106.265899 236.799193,106.554725 237.091629,106.893362 C237.384065,107.231999 237.532427,107.650429 237.536714,108.148654 C237.532427,108.688848 237.367819,109.164001 237.04289,109.574111 C236.717961,109.984221 236.262327,110.304101 235.675988,110.533751 C235.089649,110.763401 234.398611,110.878227 233.602874,110.878227 C232.791228,110.878227 232.06733,110.754037 231.43118,110.505658 C230.79503,110.257279 230.287075,109.885416 229.907314,109.390069 C229.527553,108.894721 229.312401,108.275861 229.261856,107.533489 L224.721482,107.533489 C224.760518,109.132185 225.149361,110.471276 225.88801,111.550762 C226.62666,112.630248 227.657745,113.443642 228.981267,113.990945 C230.304788,114.538247 231.862642,114.811898 233.654828,114.811898 Z M250.100614,114.5 L250.100614,92.3181818 L245.413005,92.3181818 L245.413005,114.5 L250.100614,114.5 Z M264.042145,114.803267 C265.908005,114.803267 267.562632,114.426722 269.006028,113.673631 C270.449423,112.920541 271.583064,111.843931 272.406951,110.443803 C273.230838,109.043675 273.642781,107.371758 273.642781,105.428051 L273.642781,102.629261 L264.362843,102.629261 L264.362843,106.155756 L269.116374,106.156 L269.112429,106.330817 C269.077855,107.041765 268.922272,107.678047 268.645682,108.239662 L268.519734,108.475783 C268.119665,109.170431 267.542352,109.706959 266.787795,110.085366 C266.033238,110.463773 265.126708,110.652976 264.068207,110.652976 C262.895529,110.652976 261.879562,110.369904 261.020306,109.803761 C260.161049,109.237617 259.49675,108.412997 259.027408,107.329901 C258.558066,106.246804 258.323395,104.93118 258.323395,103.383029 C258.323395,101.843565 258.562043,100.536628 259.039339,99.4622192 C259.516635,98.38781 260.183811,97.5697054 261.040868,97.0079054 C261.897924,96.4461055 262.892596,96.1652055 264.024883,96.1652055 C264.627017,96.1652055 265.180468,96.2399505 265.685236,96.3894404 C266.190005,96.5389303 266.638418,96.7577214 267.030476,97.0458138 C267.422535,97.3339062 267.756489,97.6819356 268.032341,98.089902 C268.308192,98.4978684 268.521934,98.9625281 268.673568,99.4838812 L273.434793,99.4838812 C273.284626,98.3863433 272.942379,97.3812353 272.408051,96.4685572 C271.873723,95.5558791 271.185957,94.7670237 270.344752,94.1019911 C269.503547,93.4369585 268.541029,92.9228543 267.457199,92.5596785 C266.37337,92.1965027 265.203259,92.0149148 263.946866,92.0149148 C262.481076,92.0149148 261.119251,92.270881 259.861392,92.7828133 C258.603534,93.2947457 257.502385,94.0420824 256.557948,95.0248233 C255.61351,96.0075642 254.878809,97.2043859 254.353846,98.6152885 C253.828883,100.026191 253.566401,101.632812 253.566401,103.435153 C253.566401,105.774642 254.005789,107.79425 254.884563,109.493978 C255.763338,111.193707 256.989043,112.50352 258.561676,113.423419 C260.13431,114.343318 261.961133,114.803267 264.042145,114.803267 Z M281.856963,114.5 L281.856963,100.540916 L282.021459,100.540916 L291.665588,114.5 L295.7206,114.5 L295.7206,92.3181818 L291.050253,92.3181818 L291.050253,106.268635 L290.859696,106.268635 L281.276322,92.3181818 L277.169355,92.3181818 L277.169355,114.5 L281.856963,114.5 Z M314.575032,114.5 L314.575032,110.635545 L304.272753,110.635545 L304.272753,105.332603 L313.760679,105.332603 L313.760679,101.468148 L304.272753,101.468148 L304.272753,96.1826366 L314.531708,96.1826366 L314.531708,92.3181818 L299.585144,92.3181818 L299.585144,114.5 L314.575032,114.5 Z M322.953985,114.5 L322.953374,106.641 L326.375374,106.641 L330.578985,114.5 L335.751786,114.5 L331.048374,105.887 L331.25152,105.796134 C332.361277,105.276248 333.229862,104.54535 333.857272,103.60344 L334.009101,103.363567 C334.645251,102.305066 334.963326,101.037843 334.963326,99.561898 C334.963326,98.0946406 334.650666,96.8180251 334.025347,95.7320515 C333.400028,94.6460779 332.494571,93.8056063 331.308975,93.2106365 C330.123379,92.6156667 328.690053,92.3181818 327.008997,92.3181818 L318.266376,92.3181818 L318.266376,114.5 L322.953985,114.5 Z M322.953985,96.1565746 L326.116627,96.1565746 C327.020674,96.1565746 327.769111,96.2869129 328.361937,96.5475894 C328.954763,96.8082659 329.398832,97.1916934 329.694145,97.6978718 C329.989459,98.2040502 330.137115,98.8253923 330.137115,99.561898 C330.137115,100.294116 329.990164,100.904994 329.696261,101.394531 C329.402358,101.884068 328.959727,102.251249 328.368368,102.496074 C327.777008,102.740899 327.032182,102.863312 326.133889,102.863312 L322.953374,102.864 L322.953985,96.1565746 Z M346.496083,114.811898 C348.304178,114.811898 349.849057,114.539685 351.130721,113.99526 C352.412386,113.450835 353.394732,112.681836 354.077759,111.688264 C354.760787,110.694692 355.104501,109.520633 355.108901,108.166085 C355.104501,107.243309 354.938031,106.4245 354.609492,105.709656 C354.280953,104.994812 353.819198,104.37347 353.224229,103.84563 C352.629259,103.317789 351.927418,102.87262 351.118706,102.510121 C350.309994,102.147622 349.421854,101.858063 348.454288,101.641443 L346.46139,101.164881 C345.980541,101.056571 345.527107,100.925895 345.101089,100.772851 C344.675071,100.619807 344.298864,100.436781 343.972468,100.223772 C343.646073,100.010763 343.39225,99.7558682 343.211001,99.4590884 C343.029751,99.1623087 342.94347,98.8153511 342.952157,98.4182157 C342.956445,97.9401865 343.096514,97.5141403 343.372365,97.1400771 C343.648216,96.7660139 344.050795,96.4710393 344.580102,96.2551533 C345.109409,96.0392673 345.756757,95.9313244 346.522145,95.9313244 C347.644166,95.9313244 348.534082,96.1739493 349.191894,96.6591991 C349.849706,97.1444489 350.221936,97.8231895 350.308583,98.6954207 L354.805634,98.6954207 C354.786793,97.3769762 354.43332,96.2155526 353.745215,95.2111497 C353.05711,94.2067469 352.09857,93.4229403 350.869593,92.8597301 C349.640617,92.2965199 348.203032,92.0149148 346.556838,92.0149148 C344.937947,92.0149148 343.493452,92.2957865 342.223352,92.8575301 C340.953252,93.4192736 339.954631,94.2030801 339.22749,95.2089497 C338.500348,96.2148192 338.138978,97.3885406 338.143378,98.7301136 C338.138978,100.367733 338.677959,101.671398 339.760322,102.641108 C340.842686,103.610818 342.319674,104.323123 344.191288,104.778023 L346.608793,105.375927 C347.414572,105.570884 348.096923,105.78787 348.655846,106.026885 C349.214769,106.265899 349.640448,106.554725 349.932884,106.893362 C350.22532,107.231999 350.373682,107.650429 350.377969,108.148654 C350.373682,108.688848 350.209074,109.164001 349.884145,109.574111 C349.559216,109.984221 349.103582,110.304101 348.517243,110.533751 C347.930904,110.763401 347.239866,110.878227 346.444128,110.878227 C345.632483,110.878227 344.908585,110.754037 344.272435,110.505658 C343.636285,110.257279 343.12833,109.885416 342.748569,109.390069 C342.368808,108.894721 342.153656,108.275861 342.103111,107.533489 L337.562736,107.533489 C337.601773,109.132185 337.990616,110.471276 338.729265,111.550762 C339.467915,112.630248 340.499,113.443642 341.822521,113.990945 C343.146043,114.538247 344.703897,114.811898 346.496083,114.811898 Z M372.039975,114.829329 C373.023336,114.829329 374.023367,114.680206 375.040068,114.381959 C376.056768,114.083713 376.974495,113.603173 377.793249,112.940341 L377.708374,113.006 L379.049641,114.5 L383.867221,114.5 L380.526374,110.667 L380.664069,110.481927 L380.864928,110.18716 C381.390624,109.382792 381.801496,108.436887 382.097542,107.349447 C382.393589,106.262007 382.541612,105.038079 382.541612,103.677665 L378.720481,103.677665 C378.720481,104.782424 378.533111,105.790803 378.158371,106.702805 C378.064686,106.930805 377.963124,107.150906 377.853686,107.363107 L377.774374,107.509 L374.116374,103.313 L375.410436,102.377949 C376.238403,101.781043 376.902346,101.113958 377.402264,100.376694 L377.582045,100.096931 C378.098321,99.2477718 378.356459,98.3011623 378.356459,97.2571023 C378.356459,96.3126646 378.123593,95.4440155 377.657862,94.651155 C377.19213,93.8582944 376.529269,93.2221444 375.669279,92.7427049 C374.809289,92.2632654 373.784325,92.0235457 372.594385,92.0235457 C371.381317,92.0235457 370.321349,92.2748297 369.414481,92.7773978 C368.507613,93.2799659 367.802895,93.9615835 367.300327,94.8222504 C366.797759,95.6829173 366.546475,96.6505118 366.546475,97.7250338 C366.546475,98.6781588 366.737456,99.561221 367.119416,100.37422 C367.501377,101.18722 367.979745,101.951508 368.554519,102.667085 L368.670374,102.81 L368.35284,103.031044 C367.826535,103.40537 367.345159,103.781314 366.908711,104.158874 L366.589799,104.442348 C365.968824,105.009902 365.484307,105.629072 365.13625,106.299859 C364.788192,106.970645 364.614163,107.740011 364.614163,108.607955 C364.614163,109.771945 364.912381,110.823987 365.508818,111.764081 C366.105254,112.704175 366.958729,113.450073 368.069241,114.001776 C369.179754,114.553478 370.503332,114.829329 372.039975,114.829329 Z M371.902374,100.683 L371.722039,100.45651 C371.384879,100.02299 371.107402,99.6067449 370.889608,99.2077762 C370.628254,98.7290136 370.497578,98.2578384 370.497578,97.7942505 C370.497578,97.4231771 370.586031,97.0831017 370.762936,96.7740243 C370.939842,96.4649469 371.187854,96.215468 371.506973,96.0255876 C371.826092,95.8357072 372.200127,95.740767 372.629078,95.740767 C373.278936,95.736367 373.780771,95.9219037 374.134582,96.2973772 C374.488394,96.6728506 374.6653,97.0794067 374.6653,97.5170455 C374.6653,97.9806334 374.535328,98.4091899 374.275385,98.802715 C374.015442,99.19624 373.608209,99.5706417 373.053686,99.92592 L371.902374,100.683 Z M372.265225,111.120739 C371.622588,111.120739 371.062621,110.999426 370.585325,110.756801 C370.10803,110.514176 369.738677,110.184199 369.477267,109.766868 C369.215857,109.349537 369.085152,108.876585 369.085152,108.348011 C369.085152,107.92346 369.232809,107.477219 369.528122,107.009287 C369.823435,106.541355 370.276558,106.086427 370.887493,105.644501 L371.018374,105.55 L375.220374,110.233 L375.131914,110.288246 C375.040911,110.342355 374.948852,110.394106 374.855739,110.443499 L374.573236,110.584606 C373.811458,110.942028 373.042121,111.120739 372.265225,111.120739 Z M400.815636,114.5 C403.068476,114.5 405.005781,114.056297 406.627549,113.168891 C408.249317,112.281485 409.495583,111.007775 410.366347,109.34776 C411.237112,107.687746 411.672494,105.702435 411.672494,103.391829 C411.672494,101.086977 411.237479,99.1074205 410.367447,97.4531597 C409.497416,95.7988989 408.256932,94.529504 406.645995,93.6449751 C405.035058,92.7604463 403.114734,92.3181818 400.885021,92.3181818 L392.956754,92.3181818 L392.956754,114.5 L400.815636,114.5 Z M397.644363,110.479681 L397.644363,96.338501 L400.633709,96.338501 C402.020073,96.338501 403.185135,96.5840311 404.128896,97.0750913 C405.072656,97.5661515 405.786062,98.3308346 406.269111,99.3691406 C406.752161,100.407447 406.993686,101.748343 406.993686,103.391829 C406.993686,105.040956 406.752866,106.386873 406.271227,107.429579 C405.789587,108.472285 405.074744,109.241312 404.126696,109.73666 C403.178648,110.232007 402.008508,110.479681 400.616278,110.479681 L397.644363,110.479681 Z M430.12845,114.5 L430.12845,110.635545 L419.82617,110.635545 L419.82617,105.332603 L429.314096,105.332603 L429.314096,101.468148 L419.82617,101.468148 L419.82617,96.1826366 L430.085126,96.1826366 L430.085126,92.3181818 L415.138562,92.3181818 L415.138562,114.5 L430.12845,114.5 Z M446.314159,114.5 L453.965221,92.3181818 L448.757727,92.3181818 L443.394199,109.171165 L443.186379,109.171165 L437.822682,92.3181818 L432.615357,92.3181818 L440.266419,114.5 L446.314159,114.5 Z M471.615275,114.5 L471.615275,110.635545 L461.312995,110.635545 L461.312995,105.332603 L470.800921,105.332603 L470.800921,101.468148 L461.312995,101.468148 L461.312995,96.1826366 L471.571951,96.1826366 L471.571951,92.3181818 L456.625387,92.3181818 L456.625387,114.5 L471.615275,114.5 Z M489.499415,114.5 L489.499415,110.635545 L479.994227,110.635545 L479.994227,92.3181818 L475.306619,92.3181818 L475.306619,114.5 L489.499415,114.5 Z M502.60921,114.803267 C504.570405,114.803267 506.335147,114.357392 507.903437,113.465643 C509.471727,112.573893 510.712944,111.279226 511.627089,109.581641 C512.541234,107.884057 512.998306,105.82654 512.998306,103.409091 C512.998306,100.991642 512.541234,98.934125 511.627089,97.2365404 C510.712944,95.5389557 509.471727,94.2442886 507.903437,93.3525391 C506.335147,92.4607895 504.570405,92.0149148 502.60921,92.0149148 C500.639441,92.0149148 498.871483,92.4607895 497.305337,93.3525391 C495.73919,94.2442886 494.500117,95.5389557 493.588115,97.2365404 C492.676114,98.934125 492.220114,100.991642 492.220114,103.409091 C492.220114,105.817853 492.676114,107.871026 493.588115,109.56861 C494.500117,111.266195 495.73919,112.563034 497.305337,113.459127 C498.871483,114.35522 500.639441,114.803267 502.60921,114.803267 Z M502.60921,110.652976 C501.474102,110.652976 500.484507,110.37532 499.640425,109.820007 C498.796343,109.264695 498.141436,108.448734 497.675705,107.372124 C497.209973,106.295515 496.977108,104.974504 496.977108,103.409091 C496.977108,101.843678 497.209973,100.522667 497.675705,99.4460574 C498.141436,98.3694481 498.796343,97.5534871 499.640425,96.9981745 C500.484507,96.4428618 501.474102,96.1652055 502.60921,96.1652055 C503.744318,96.1652055 504.733913,96.4428618 505.577995,96.9981745 C506.422077,97.5534871 507.077012,98.3694481 507.5428,99.4460574 C508.008587,100.522667 508.241481,101.843678 508.241481,103.409091 C508.241481,104.974504 508.008587,106.295515 507.5428,107.372124 C507.077012,108.448734 506.422077,109.264695 505.577995,109.820007 C504.733913,110.37532 503.744318,110.652976 502.60921,110.652976 Z M521.151866,114.5 L521.151374,107.309 L525.094337,107.308239 C526.667327,107.308239 528.026517,107.03998 529.171908,106.503463 L529.453801,106.363745 C530.656038,105.734082 531.574499,104.856774 532.209182,103.73182 C532.843865,102.606866 533.161207,101.306417 533.161207,99.8304721 C533.161207,98.3633275 532.848547,97.0643731 532.223228,95.933609 C531.597909,94.8028449 530.693157,93.9175827 529.508971,93.2778223 C528.324786,92.638062 526.890755,92.3181818 525.206878,92.3181818 L516.464258,92.3181818 L516.464258,114.5 L521.151866,114.5 Z M521.151866,96.1565746 L524.314508,96.1565746 C525.221376,96.1565746 525.971223,96.3093081 526.564049,96.6147752 C527.156875,96.9202423 527.600239,97.3484321 527.894142,97.8993447 C528.188045,98.4502573 528.334996,99.0939664 528.334996,99.8304721 C528.334996,100.562691 528.188045,101.208233 527.894142,101.7671 C527.600239,102.325966 527.158342,102.762448 526.568449,103.076546 C525.978556,103.390644 525.232996,103.547693 524.33177,103.547693 L521.151374,103.548 L521.151866,96.1565746 Z M551.209811,114.5 L551.209811,110.635545 L540.907532,110.635545 L540.907532,105.332603 L550.395458,105.332603 L550.395458,101.468148 L540.907532,101.468148 L540.907532,96.1826366 L551.166487,96.1826366 L551.166487,92.3181818 L536.219924,92.3181818 L536.219924,114.5 L551.209811,114.5 Z M559.588764,114.5 L559.588374,106.641 L563.010374,106.641 L567.213764,114.5 L572.386565,114.5 L567.683374,105.887 L567.886299,105.796134 C568.996057,105.276248 569.864641,104.54535 570.492052,103.60344 L570.64388,103.363567 C571.28003,102.305066 571.598105,101.037843 571.598105,99.561898 C571.598105,98.0946406 571.285445,96.8180251 570.660126,95.7320515 C570.034807,94.6460779 569.12935,93.8056063 567.943754,93.2106365 C566.758158,92.6156667 565.324832,92.3181818 563.643776,92.3181818 L554.901156,92.3181818 L554.901156,114.5 L559.588764,114.5 Z M559.588764,96.1565746 L562.751406,96.1565746 C563.655453,96.1565746 564.40389,96.2869129 564.996716,96.5475894 C565.589542,96.8082659 566.033612,97.1916934 566.328925,97.6978718 C566.624238,98.2040502 566.771894,98.8253923 566.771894,99.561898 C566.771894,100.294116 566.624943,100.904994 566.33104,101.394531 C566.037137,101.884068 565.594506,102.251249 565.003147,102.496074 C564.411787,102.740899 563.666961,102.863312 562.768668,102.863312 L559.588374,102.864 L559.588764,96.1565746 Z M583.130862,114.811898 C584.938957,114.811898 586.483836,114.539685 587.7655,113.99526 C589.047165,113.450835 590.029511,112.681836 590.712539,111.688264 C591.395566,110.694692 591.73928,109.520633 591.74368,108.166085 C591.73928,107.243309 591.572811,106.4245 591.244271,105.709656 C590.915732,104.994812 590.453978,104.37347 589.859008,103.84563 C589.264038,103.317789 588.562197,102.87262 587.753485,102.510121 C586.944773,102.147622 586.056634,101.858063 585.089067,101.641443 L583.09617,101.164881 C582.61532,101.056571 582.161886,100.925895 581.735868,100.772851 C581.30985,100.619807 580.933643,100.436781 580.607247,100.223772 C580.280852,100.010763 580.027029,99.7558682 579.84578,99.4590884 C579.66453,99.1623087 579.578249,98.8153511 579.586937,98.4182157 C579.591224,97.9401865 579.731293,97.5141403 580.007144,97.1400771 C580.282995,96.7660139 580.685574,96.4710393 581.214882,96.2551533 C581.744189,96.0392673 582.391536,95.9313244 583.156925,95.9313244 C584.278945,95.9313244 585.168861,96.1739493 585.826673,96.6591991 C586.484485,97.1444489 586.856715,97.8231895 586.943362,98.6954207 L591.440413,98.6954207 C591.421572,97.3769762 591.068099,96.2155526 590.379994,95.2111497 C589.691889,94.2067469 588.733349,93.4229403 587.504373,92.8597301 C586.275397,92.2965199 584.837811,92.0149148 583.191617,92.0149148 C581.572727,92.0149148 580.128231,92.2957865 578.858131,92.8575301 C577.588031,93.4192736 576.58941,94.2030801 575.862269,95.2089497 C575.135128,96.2148192 574.773757,97.3885406 574.778157,98.7301136 C574.773757,100.367733 575.312738,101.671398 576.395102,102.641108 C577.477465,103.610818 578.954453,104.323123 580.826067,104.778023 L583.243572,105.375927 C584.049351,105.570884 584.731702,105.78787 585.290625,106.026885 C585.849548,106.265899 586.275227,106.554725 586.567663,106.893362 C586.860099,107.231999 587.008461,107.650429 587.012748,108.148654 C587.008461,108.688848 586.843853,109.164001 586.518924,109.574111 C586.193995,109.984221 585.738361,110.304101 585.152022,110.533751 C584.565683,110.763401 583.874645,110.878227 583.078908,110.878227 C582.267262,110.878227 581.543364,110.754037 580.907214,110.505658 C580.271064,110.257279 579.763109,109.885416 579.383348,109.390069 C579.003588,108.894721 578.788435,108.275861 578.73789,107.533489 L574.197516,107.533489 C574.236552,109.132185 574.625395,110.471276 575.364045,111.550762 C576.102694,112.630248 577.133779,113.443642 578.457301,113.990945 C579.780822,114.538247 581.338676,114.811898 583.130862,114.811898 Z M187.151056,145.5 L187.151056,126.538702 L187.281027,126.538702 L195.310327,145.5 L196.581273,145.5 L204.610573,126.538702 L204.740544,126.538702 L204.740544,145.5 L206.04026,145.5 L206.04026,123.318182 L204.567249,123.318182 L196.018063,143.550257 L195.873537,143.550257 L187.324351,123.318182 L185.85134,123.318182 L185.85134,145.5 L187.151056,145.5 Z M225.059468,145.5 L225.059468,144.243608 L213.809818,144.243608 L213.809818,135.030179 L224.135282,135.030179 L224.135282,133.773618 L213.809818,133.773618 L213.809818,124.574574 L224.799525,124.574574 L224.799525,123.318182 L212.452224,123.318182 L212.452224,145.5 L225.059468,145.5 Z M243.010006,145.5 L243.010006,144.243608 L231.760356,144.243608 L231.760356,135.030179 L242.08582,135.030179 L242.08582,133.773618 L231.760356,133.773618 L231.760356,124.574574 L242.750063,124.574574 L242.750063,123.318182 L230.402762,123.318182 L230.402762,145.5 L243.010006,145.5 Z M255.328443,145.5 L255.328443,124.574574 L262.419171,124.574574 L262.419171,123.318182 L246.880289,123.318182 L246.880289,124.574574 L253.971018,124.574574 L253.971018,145.5 L255.328443,145.5 Z M275.546281,145.860976 C277.142043,145.860976 278.554892,145.5198 279.784827,144.83745 C281.014762,144.155099 281.980523,143.222451 282.682111,142.039506 C283.383698,140.856562 283.734491,139.511717 283.734491,138.004972 L283.734491,123.318182 L282.376897,123.318182 L282.376897,137.932709 C282.376897,139.208393 282.087479,140.345053 281.508643,141.342686 C280.929807,142.34032 280.126538,143.126157 279.098838,143.700198 C278.071137,144.274239 276.886951,144.56126 275.546281,144.56126 C274.20561,144.56126 273.022017,144.274239 271.995501,143.700198 C270.968985,143.126157 270.165717,142.34032 269.585696,141.342686 C269.005675,140.345053 268.715665,139.208393 268.715665,137.932709 L268.715665,123.318182 L267.357924,123.318182 L267.357924,138.004972 C267.353219,139.506866 267.7028,140.849313 268.406813,142.032314 C269.110826,143.215315 270.080197,144.149175 271.314927,144.833896 C272.549657,145.518616 273.960109,145.860976 275.546281,145.860976 Z M291.504006,145.5 L291.503374,136.648 L296.991583,136.647547 C298.277929,136.647547 299.397376,136.404355 300.349924,135.917972 L300.605572,135.779293 C301.61161,135.200457 302.384812,134.409176 302.925175,133.40545 C303.465539,132.401724 303.735721,131.263259 303.735721,129.990057 C303.735721,128.707151 303.464947,127.563864 302.923398,126.560195 C302.38185,125.556525 301.607436,124.765272 300.600156,124.186436 C299.592876,123.6076 298.385224,123.318182 296.977198,123.318182 L290.146412,123.318182 L290.146412,145.5 L291.504006,145.5 Z M291.504006,124.574574 L296.948259,124.574574 C298.09149,124.574574 299.068674,124.806255 299.879812,125.269617 C300.69095,125.73298 301.312546,126.372627 301.7446,127.18856 C302.176654,128.004493 302.392681,128.938325 302.392681,129.990057 C302.392681,131.03705 302.176654,131.966708 301.7446,132.779031 C301.312546,133.591353 300.692163,134.229788 299.883451,134.694335 C299.074739,135.158881 298.101136,135.391155 296.962644,135.391155 L291.503374,135.392 L291.504006,124.574574 Z" id="OSAKAWEBDESIGNERS&amp;DEVELOPERSMEETUP" fill="#000000" fill-rule="nonzero"></path>
    </g>
</svg>