<?xml version="1.0" encoding="UTF-8"?>
<svg width="635px" height="206px" viewBox="0 0 635 206" version="1.1"
    xmlns="http://www.w3.org/2000/svg" xmlns:xlink="http://www.w3.org/1999/xlink">
    <g id="logo-/-big-/-kwddm-outline" stroke="none" stroke-width="1" fill="none"
        fill-rule="evenodd">
        <polygon fill="#FFFFFF"
            points="373.969374 47.5 373.969374 74.5 623.072112 74.5 623.072112 131.318041 316.071374 131.318 316.072112 159.5 163.072112 159.5 163.071374 104.318 162.969374 104.318041 162.969374 47.5"></polygon>
        <g transform="translate(10.000000, 10.000000)">
            <polygon id="hex" fill="#551A6A"
                points="80 0 160 46.5 160 139.5 80 186 1.04688288e-14 139.5 0 46.5"></polygon>
            <polygon id="slash" fill="#FFFFFF"
                points="91.4436542 66.6096344 100.895864 66.6096344 70.5484138 119.65589 61.0962037 119.65589"></polygon>
            <polyline id="arrow-left" fill="#FFFFFF"
                points="27.0551173 89.8389094 54.3154267 78.0130975 54.3154267 85.8417519 35.274884 93.0509108 35.274884 93.1610382 54.3154267 100.370197 54.3154267 108.198852 27.0551173 96.3730396"></polyline>
            <polyline id="arrow-right" fill="#FFFFFF"
                transform="translate(119.286536, 93.161038) scale(-1, 1) translate(-119.286536, -93.161038) "
                points="105.656381 89.8939731 132.916691 78.0681611 132.916691 85.8968156 113.876148 93.1059745 113.876148 93.2161019 132.916691 100.425261 132.916691 108.253915 105.656381 96.4281033"></polyline>
        </g>
        <path
            d="M187.208934,83.5 L187.208934,76.2792996 L190.357022,72.7846208 L199.079503,83.5 L200.769303,83.5 L191.223499,71.8169417 L200.855951,61.3181818 L199.050564,61.3181818 L187.35329,74.1997542 L187.208934,74.1997542 L187.208934,61.3181818 L185.85134,61.3181818 L185.85134,83.5 L187.208934,83.5 Z M212.105702,83.5 L212.105702,73.4344788 L220.091677,61.3181818 L218.488694,61.3181818 L211.499167,72.0191761 L211.354811,72.0191761 L204.365115,61.3181818 L202.762132,61.3181818 L210.748108,73.4344788 L210.748108,83.5 L212.105702,83.5 Z M232.511305,83.803267 C234.354938,83.803267 235.981981,83.3303149 237.392432,82.3844105 C238.802883,81.4385062 239.906457,80.1111205 240.703154,78.4022536 C241.49985,76.6933867 241.898198,74.6956658 241.898198,72.4090909 C241.898198,70.1225161 241.49985,68.1247952 240.703154,66.4159282 C239.906457,64.7070613 238.802883,63.3796757 237.392432,62.4337713 C235.981981,61.487867 234.354938,61.0149148 232.511305,61.0149148 C230.667558,61.0149148 229.040488,61.4890798 227.630093,62.4374098 C226.219698,63.3857399 225.116153,64.7131255 224.319456,66.4195668 C223.522759,68.126008 223.124411,70.1225161 223.124411,72.4090909 C223.124411,74.6908144 223.521547,76.6861096 224.315817,78.3949765 C225.110088,80.1038435 226.212449,81.4324419 227.622901,82.380772 C229.033352,83.329102 230.66282,83.803267 232.511305,83.803267 Z M232.511305,82.5035511 C230.932353,82.5035511 229.536964,82.0883641 228.325136,81.2579901 C227.113309,80.427616 226.165007,79.2566588 225.480231,77.7451186 C224.795454,76.2335783 224.453066,74.4549024 224.453066,72.4090909 C224.453066,70.3439867 224.799065,68.5556927 225.491062,67.0442089 C226.183059,65.532725 227.134971,64.366591 228.346798,63.5458069 C229.558626,62.7250227 230.946794,62.3146307 232.511305,62.3146307 C234.080554,62.3146307 235.471092,62.7274202 236.682919,63.5529993 C237.894746,64.3785784 238.845445,65.5471099 239.535017,67.0585938 C240.224588,68.5700776 240.569425,70.3535767 240.569425,72.4090909 C240.574226,74.4646052 240.231865,76.2481042 239.542294,77.7595881 C238.852722,79.2710719 237.90081,80.4396034 236.686558,81.2651825 C235.472305,82.0907616 234.080554,82.5035511 232.511305,82.5035511 Z M254.158757,83.5 L254.158757,62.5745739 L261.249485,62.5745739 L261.249485,61.3181818 L245.710603,61.3181818 L245.710603,62.5745739 L252.801332,62.5745739 L252.801332,83.5 L254.158757,83.5 Z M274.448858,83.803267 C276.292491,83.803267 277.919533,83.3303149 279.329985,82.3844105 C280.740436,81.4385062 281.84401,80.1111205 282.640706,78.4022536 C283.437403,76.6933867 283.835751,74.6956658 283.835751,72.4090909 C283.835751,70.1225161 283.437403,68.1247952 282.640706,66.4159282 C281.84401,64.7070613 280.740436,63.3796757 279.329985,62.4337713 C277.919533,61.487867 276.292491,61.0149148 274.448858,61.0149148 C272.605111,61.0149148 270.978041,61.4890798 269.567646,62.4374098 C268.157251,63.3857399 267.053705,64.7131255 266.257009,66.4195668 C265.460312,68.126008 265.061964,70.1225161 265.061964,72.4090909 C265.061964,74.6908144 265.4591,76.6861096 266.25337,78.3949765 C267.047641,80.1038435 268.150002,81.4324419 269.560453,82.380772 C270.970905,83.329102 272.600373,83.803267 274.448858,83.803267 Z M274.448858,82.5035511 C272.869906,82.5035511 271.474516,82.0883641 270.262689,81.2579901 C269.050862,80.427616 268.10256,79.2566588 267.417784,77.7451186 C266.733007,76.2335783 266.390619,74.4549024 266.390619,72.4090909 C266.390619,70.3439867 266.736618,68.5556927 267.428615,67.0442089 C268.120612,65.532725 269.072524,64.366591 270.284351,63.5458069 C271.496178,62.7250227 272.884347,62.3146307 274.448858,62.3146307 C276.018107,62.3146307 277.408645,62.7274202 278.620472,63.5529993 C279.832299,64.3785784 280.782998,65.5471099 281.47257,67.0585938 C282.162141,68.5700776 282.506978,70.3535767 282.506978,72.4090909 C282.511778,74.4646052 282.169418,76.2481042 281.479847,77.7595881 C280.790275,79.2710719 279.838363,80.4396034 278.62411,81.2651825 C277.409858,82.0907616 276.018107,82.5035511 274.448858,82.5035511 Z M302.94148,83.5 L308.328193,63.542253 L308.443611,63.542253 L313.830155,83.5 L315.389983,83.5 L321.484093,61.3181818 L320.083345,61.3181818 L314.667862,81.4059004 L314.53789,81.4059004 L309.209055,61.3181818 L307.562748,61.3181818 L302.233913,81.4059004 L302.103942,81.4059004 L296.688459,61.3181818 L295.287541,61.3181818 L301.381821,83.5 L302.94148,83.5 Z M338.091645,83.5 L338.091645,82.243608 L326.841995,82.243608 L326.841995,73.0301791 L337.167459,73.0301791 L337.167459,71.7736178 L326.841995,71.7736178 L326.841995,62.5745739 L337.831702,62.5745739 L337.831702,61.3181818 L325.484401,61.3181818 L325.484401,83.5 L338.091645,83.5 Z M351.21885,83.5 C352.648537,83.5 353.847164,83.2568956 354.81473,82.7706868 C355.782297,82.2844779 356.510369,81.6093477 356.998947,80.7452961 C357.487525,79.8812445 357.731814,78.8835828 357.731814,77.752311 C357.731814,76.6740658 357.530849,75.7305871 357.128919,74.921875 C356.726988,74.1131629 356.197484,73.472923 355.540405,73.0011555 C354.883327,72.529388 354.174519,72.2646216 353.413982,72.2068565 L353.413982,72.2068565 L353.413982,72.0768849 C354.102312,71.8988509 354.705828,71.5847811 355.22453,71.1346755 C355.743232,70.6845699 356.146375,70.1129261 356.43396,69.4197443 C356.721545,68.7265625 356.865337,67.9322917 356.865337,67.0369318 C356.865337,65.8960701 356.625871,64.8966032 356.146939,64.0385312 C355.668008,63.1804592 354.966392,62.5125497 354.042093,62.0348025 C353.117795,61.5570554 351.984125,61.3181818 350.641085,61.3181818 L350.641085,61.3181818 L343.434939,61.3181818 L343.434939,83.5 L351.21885,83.5 Z M351.103263,71.6147073 L344.792533,71.6147073 L344.792533,62.5745739 L350.641085,62.5745739 C352.210447,62.5745739 353.421118,62.9747273 354.273098,63.7750341 C355.125077,64.575341 355.551067,65.6626402 355.551067,67.0369318 C355.551067,67.8841164 355.375966,68.6542996 355.025765,69.3474815 C354.675564,70.0406633 354.170119,70.5918297 353.50943,71.0009807 C352.848741,71.4101317 352.046685,71.6147073 351.103263,71.6147073 L351.103263,71.6147073 Z M351.21885,82.243608 L344.792533,82.243608 L344.792533,72.8568837 L351.262174,72.8568837 C352.282654,72.8568837 353.179198,73.070485 353.951807,73.4976876 C354.724416,73.9248902 355.328524,74.5073367 355.764132,75.245027 C356.19974,75.9827173 356.417544,76.8184787 356.417544,77.752311 C356.417544,79.0736889 355.968087,80.1525828 355.069174,80.9889929 C354.17026,81.8254029 352.886819,82.243608 351.21885,82.243608 L351.21885,82.243608 Z M192.436567,114.5 C194.689408,114.5 196.626712,114.056297 198.24848,113.168891 C199.870248,112.281485 201.116514,111.007775 201.987279,109.34776 C202.858043,107.687746 203.293426,105.702435 203.293426,103.391829 C203.293426,101.086977 202.85841,99.1074205 201.988379,97.4531597 C201.118348,95.7988989 199.877864,94.529504 198.266927,93.6449751 C196.65599,92.7604463 194.735665,92.3181818 192.505953,92.3181818 L192.505953,92.3181818 L184.577686,92.3181818 L184.577686,114.5 L192.436567,114.5 Z M192.237209,110.479681 L189.265294,110.479681 L189.265294,96.338501 L192.254641,96.338501 C193.641004,96.338501 194.806066,96.5840311 195.749827,97.0750913 C196.693588,97.5661515 197.406993,98.3308346 197.890043,99.3691406 C198.373093,100.407447 198.614618,101.748343 198.614618,103.391829 C198.614618,105.040956 198.373798,106.386873 197.892158,107.429579 C197.410519,108.472285 196.695675,109.241312 195.747627,109.73666 C194.799579,110.232007 193.62944,110.479681 192.237209,110.479681 L192.237209,110.479681 Z M221.749381,114.5 L221.749381,110.635545 L211.447102,110.635545 L211.447102,105.332603 L220.935028,105.332603 L220.935028,101.468148 L211.447102,101.468148 L211.447102,96.1826366 L221.706057,96.1826366 L221.706057,92.3181818 L206.759493,92.3181818 L206.759493,114.5 L221.749381,114.5 Z M233.654828,114.811898 C235.462923,114.811898 237.007802,114.539685 238.289466,113.99526 C239.571131,113.450835 240.553477,112.681836 241.236505,111.688264 C241.919532,110.694692 242.263246,109.520633 242.267646,108.166085 C242.263246,107.243309 242.096777,106.4245 241.768237,105.709656 C241.439698,104.994812 240.977943,104.37347 240.382974,103.84563 C239.788004,103.317789 239.086163,102.87262 238.277451,102.510121 C237.468739,102.147622 236.580599,101.858063 235.613033,101.641443 L235.613033,101.641443 L233.620135,101.164881 C233.139286,101.056571 232.685852,100.925895 232.259834,100.772851 C231.833816,100.619807 231.457609,100.436781 231.131213,100.223772 C230.804818,100.010763 230.550995,99.7558682 230.369746,99.4590884 C230.188496,99.1623087 230.102215,98.8153511 230.110903,98.4182157 C230.11519,97.9401865 230.255259,97.5141403 230.53111,97.1400771 C230.806961,96.7660139 231.20954,96.4710393 231.738847,96.2551533 C232.268155,96.0392673 232.915502,95.9313244 233.68089,95.9313244 C234.802911,95.9313244 235.692827,96.1739493 236.350639,96.6591991 C237.008451,97.1444489 237.380681,97.8231895 237.467328,98.6954207 L237.467328,98.6954207 L241.964379,98.6954207 C241.945538,97.3769762 241.592065,96.2155526 240.90396,95.2111497 C240.215855,94.2067469 239.257315,93.4229403 238.028339,92.8597301 C236.799362,92.2965199 235.361777,92.0149148 233.715583,92.0149148 C232.096692,92.0149148 230.652197,92.2957865 229.382097,92.8575301 C228.111997,93.4192736 227.113376,94.2030801 226.386235,95.2089497 C225.659093,96.2148192 225.297723,97.3885406 225.302123,98.7301136 C225.297723,100.367733 225.836704,101.671398 226.919068,102.641108 C228.001431,103.610818 229.478419,104.323123 231.350033,104.778023 L231.350033,104.778023 L233.767538,105.375927 C234.573317,105.570884 235.255668,105.78787 235.814591,106.026885 C236.373514,106.265899 236.799193,106.554725 237.091629,106.893362 C237.384065,107.231999 237.532427,107.650429 237.536714,108.148654 C237.532427,108.688848 237.367819,109.164001 237.04289,109.574111 C236.717961,109.984221 236.262327,110.304101 235.675988,110.533751 C235.089649,110.763401 234.398611,110.878227 233.602874,110.878227 C232.791228,110.878227 232.06733,110.754037 231.43118,110.505658 C230.79503,110.257279 230.287075,109.885416 229.907314,109.390069 C229.527553,108.894721 229.312401,108.275861 229.261856,107.533489 L229.261856,107.533489 L224.721482,107.533489 C224.760518,109.132185 225.149361,110.471276 225.88801,111.550762 C226.62666,112.630248 227.657745,113.443642 228.981267,113.990945 C230.304788,114.538247 231.862642,114.811898 233.654828,114.811898 Z M250.100614,114.5 L250.100614,92.3181818 L245.413005,92.3181818 L245.413005,114.5 L250.100614,114.5 Z M264.042145,114.803267 C265.908005,114.803267 267.562632,114.426722 269.006028,113.673631 C270.449423,112.920541 271.583064,111.843931 272.406951,110.443803 C273.230838,109.043675 273.642781,107.371758 273.642781,105.428051 L273.642781,105.428051 L273.642781,102.629261 L264.362843,102.629261 L264.362843,106.155756 L269.116374,106.156 L269.112429,106.330817 C269.077855,107.041765 268.922272,107.678047 268.645682,108.239662 L268.519734,108.475783 C268.119665,109.170431 267.542352,109.706959 266.787795,110.085366 C266.033238,110.463773 265.126708,110.652976 264.068207,110.652976 C262.895529,110.652976 261.879562,110.369904 261.020306,109.803761 C260.161049,109.237617 259.49675,108.412997 259.027408,107.329901 C258.558066,106.246804 258.323395,104.93118 258.323395,103.383029 C258.323395,101.843565 258.562043,100.536628 259.039339,99.4622192 C259.516635,98.38781 260.183811,97.5697054 261.040868,97.0079054 C261.897924,96.4461055 262.892596,96.1652055 264.024883,96.1652055 C264.627017,96.1652055 265.180468,96.2399505 265.685236,96.3894404 C266.190005,96.5389303 266.638418,96.7577214 267.030476,97.0458138 C267.422535,97.3339062 267.756489,97.6819356 268.032341,98.089902 C268.308192,98.4978684 268.521934,98.9625281 268.673568,99.4838812 L268.673568,99.4838812 L273.434793,99.4838812 C273.284626,98.3863433 272.942379,97.3812353 272.408051,96.4685572 C271.873723,95.5558791 271.185957,94.7670237 270.344752,94.1019911 C269.503547,93.4369585 268.541029,92.9228543 267.457199,92.5596785 C266.37337,92.1965027 265.203259,92.0149148 263.946866,92.0149148 C262.481076,92.0149148 261.119251,92.270881 259.861392,92.7828133 C258.603534,93.2947457 257.502385,94.0420824 256.557948,95.0248233 C255.61351,96.0075642 254.878809,97.2043859 254.353846,98.6152885 C253.828883,100.026191 253.566401,101.632812 253.566401,103.435153 C253.566401,105.774642 254.005789,107.79425 254.884563,109.493978 C255.763338,111.193707 256.989043,112.50352 258.561676,113.423419 C260.13431,114.343318 261.961133,114.803267 264.042145,114.803267 Z M281.856963,114.5 L281.856963,100.540916 L282.021459,100.540916 L291.665588,114.5 L295.7206,114.5 L295.7206,92.3181818 L291.050253,92.3181818 L291.050253,106.268635 L290.859696,106.268635 L281.276322,92.3181818 L277.169355,92.3181818 L277.169355,114.5 L281.856963,114.5 Z M314.575032,114.5 L314.575032,110.635545 L304.272753,110.635545 L304.272753,105.332603 L313.760679,105.332603 L313.760679,101.468148 L304.272753,101.468148 L304.272753,96.1826366 L314.531708,96.1826366 L314.531708,92.3181818 L299.585144,92.3181818 L299.585144,114.5 L314.575032,114.5 Z M322.953985,114.5 L322.953374,106.641 L326.375374,106.641 L330.578985,114.5 L335.751786,114.5 L331.048374,105.887 L331.25152,105.796134 C332.361277,105.276248 333.229862,104.54535 333.857272,103.60344 L334.009101,103.363567 C334.645251,102.305066 334.963326,101.037843 334.963326,99.561898 C334.963326,98.0946406 334.650666,96.8180251 334.025347,95.7320515 C333.400028,94.6460779 332.494571,93.8056063 331.308975,93.2106365 C330.123379,92.6156667 328.690053,92.3181818 327.008997,92.3181818 L327.008997,92.3181818 L318.266376,92.3181818 L318.266376,114.5 L322.953985,114.5 Z M322.953985,96.1565746 L326.116627,96.1565746 C327.020674,96.1565746 327.769111,96.2869129 328.361937,96.5475894 C328.954763,96.8082659 329.398832,97.1916934 329.694145,97.6978718 C329.989459,98.2040502 330.137115,98.8253923 330.137115,99.561898 C330.137115,100.294116 329.990164,100.904994 329.696261,101.394531 C329.402358,101.884068 328.959727,102.251249 328.368368,102.496074 C327.777008,102.740899 327.032182,102.863312 326.133889,102.863312 L326.133889,102.863312 L322.953374,102.864 L322.953985,96.1565746 Z M346.496083,114.811898 C348.304178,114.811898 349.849057,114.539685 351.130721,113.99526 C352.412386,113.450835 353.394732,112.681836 354.077759,111.688264 C354.760787,110.694692 355.104501,109.520633 355.108901,108.166085 C355.104501,107.243309 354.938031,106.4245 354.609492,105.709656 C354.280953,104.994812 353.819198,104.37347 353.224229,103.84563 C352.629259,103.317789 351.927418,102.87262 351.118706,102.510121 C350.309994,102.147622 349.421854,101.858063 348.454288,101.641443 L348.454288,101.641443 L346.46139,101.164881 C345.980541,101.056571 345.527107,100.925895 345.101089,100.772851 C344.675071,100.619807 344.298864,100.436781 343.972468,100.223772 C343.646073,100.010763 343.39225,99.7558682 343.211001,99.4590884 C343.029751,99.1623087 342.94347,98.8153511 342.952157,98.4182157 C342.956445,97.9401865 343.096514,97.5141403 343.372365,97.1400771 C343.648216,96.7660139 344.050795,96.4710393 344.580102,96.2551533 C345.109409,96.0392673 345.756757,95.9313244 346.522145,95.9313244 C347.644166,95.9313244 348.534082,96.1739493 349.191894,96.6591991 C349.849706,97.1444489 350.221936,97.8231895 350.308583,98.6954207 L350.308583,98.6954207 L354.805634,98.6954207 C354.786793,97.3769762 354.43332,96.2155526 353.745215,95.2111497 C353.05711,94.2067469 352.09857,93.4229403 350.869593,92.8597301 C349.640617,92.2965199 348.203032,92.0149148 346.556838,92.0149148 C344.937947,92.0149148 343.493452,92.2957865 342.223352,92.8575301 C340.953252,93.4192736 339.954631,94.2030801 339.22749,95.2089497 C338.500348,96.2148192 338.138978,97.3885406 338.143378,98.7301136 C338.138978,100.367733 338.677959,101.671398 339.760322,102.641108 C340.842686,103.610818 342.319674,104.323123 344.191288,104.778023 L344.191288,104.778023 L346.608793,105.375927 C347.414572,105.570884 348.096923,105.78787 348.655846,106.026885 C349.214769,106.265899 349.640448,106.554725 349.932884,106.893362 C350.22532,107.231999 350.373682,107.650429 350.377969,108.148654 C350.373682,108.688848 350.209074,109.164001 349.884145,109.574111 C349.559216,109.984221 349.103582,110.304101 348.517243,110.533751 C347.930904,110.763401 347.239866,110.878227 346.444128,110.878227 C345.632483,110.878227 344.908585,110.754037 344.272435,110.505658 C343.636285,110.257279 343.12833,109.885416 342.748569,109.390069 C342.368808,108.894721 342.153656,108.275861 342.103111,107.533489 L342.103111,107.533489 L337.562736,107.533489 C337.601773,109.132185 337.990616,110.471276 338.729265,111.550762 C339.467915,112.630248 340.499,113.443642 341.822521,113.990945 C343.146043,114.538247 344.703897,114.811898 346.496083,114.811898 Z M372.039975,114.829329 C373.023336,114.829329 374.023367,114.680206 375.040068,114.381959 C376.056768,114.083713 376.974495,113.603173 377.793249,112.940341 L377.708374,113.006 L379.049641,114.5 L383.867221,114.5 L380.526374,110.667 L380.664069,110.481927 L380.664069,110.481927 L380.864928,110.18716 C381.390624,109.382792 381.801496,108.436887 382.097542,107.349447 C382.393589,106.262007 382.541612,105.038079 382.541612,103.677665 L382.541612,103.677665 L378.720481,103.677665 C378.720481,104.782424 378.533111,105.790803 378.158371,106.702805 C378.064686,106.930805 377.963124,107.150906 377.853686,107.363107 L377.774374,107.509 L374.116374,103.313 L375.410436,102.377949 C376.238403,101.781043 376.902346,101.113958 377.402264,100.376694 L377.582045,100.096931 C378.098321,99.2477718 378.356459,98.3011623 378.356459,97.2571023 C378.356459,96.3126646 378.123593,95.4440155 377.657862,94.651155 C377.19213,93.8582944 376.529269,93.2221444 375.669279,92.7427049 C374.809289,92.2632654 373.784325,92.0235457 372.594385,92.0235457 C371.381317,92.0235457 370.321349,92.2748297 369.414481,92.7773978 C368.507613,93.2799659 367.802895,93.9615835 367.300327,94.8222504 C366.797759,95.6829173 366.546475,96.6505118 366.546475,97.7250338 C366.546475,98.6781588 366.737456,99.561221 367.119416,100.37422 C367.501377,101.18722 367.979745,101.951508 368.554519,102.667085 L368.554519,102.667085 L368.670374,102.81 L368.35284,103.031044 C367.826535,103.40537 367.345159,103.781314 366.908711,104.158874 L366.589799,104.442348 C365.968824,105.009902 365.484307,105.629072 365.13625,106.299859 C364.788192,106.970645 364.614163,107.740011 364.614163,108.607955 C364.614163,109.771945 364.912381,110.823987 365.508818,111.764081 C366.105254,112.704175 366.958729,113.450073 368.069241,114.001776 C369.179754,114.553478 370.503332,114.829329 372.039975,114.829329 Z M371.902374,100.683 L371.722039,100.45651 C371.384879,100.02299 371.107402,99.6067449 370.889608,99.2077762 C370.628254,98.7290136 370.497578,98.2578384 370.497578,97.7942505 C370.497578,97.4231771 370.586031,97.0831017 370.762936,96.7740243 C370.939842,96.4649469 371.187854,96.215468 371.506973,96.0255876 C371.826092,95.8357072 372.200127,95.740767 372.629078,95.740767 C373.278936,95.736367 373.780771,95.9219037 374.134582,96.2973772 C374.488394,96.6728506 374.6653,97.0794067 374.6653,97.5170455 C374.6653,97.9806334 374.535328,98.4091899 374.275385,98.802715 C374.015442,99.19624 373.608209,99.5706417 373.053686,99.92592 L373.053686,99.92592 L371.902374,100.683 Z M372.265225,111.120739 C371.622588,111.120739 371.062621,110.999426 370.585325,110.756801 C370.10803,110.514176 369.738677,110.184199 369.477267,109.766868 C369.215857,109.349537 369.085152,108.876585 369.085152,108.348011 C369.085152,107.92346 369.232809,107.477219 369.528122,107.009287 C369.823435,106.541355 370.276558,106.086427 370.887493,105.644501 L370.887493,105.644501 L371.018374,105.55 L375.220374,110.233 L375.131914,110.288246 C375.040911,110.342355 374.948852,110.394106 374.855739,110.443499 L374.573236,110.584606 C373.811458,110.942028 373.042121,111.120739 372.265225,111.120739 Z M400.815636,114.5 C403.068476,114.5 405.005781,114.056297 406.627549,113.168891 C408.249317,112.281485 409.495583,111.007775 410.366347,109.34776 C411.237112,107.687746 411.672494,105.702435 411.672494,103.391829 C411.672494,101.086977 411.237479,99.1074205 410.367447,97.4531597 C409.497416,95.7988989 408.256932,94.529504 406.645995,93.6449751 C405.035058,92.7604463 403.114734,92.3181818 400.885021,92.3181818 L400.885021,92.3181818 L392.956754,92.3181818 L392.956754,114.5 L400.815636,114.5 Z M400.616278,110.479681 L397.644363,110.479681 L397.644363,96.338501 L400.633709,96.338501 C402.020073,96.338501 403.185135,96.5840311 404.128896,97.0750913 C405.072656,97.5661515 405.786062,98.3308346 406.269111,99.3691406 C406.752161,100.407447 406.993686,101.748343 406.993686,103.391829 C406.993686,105.040956 406.752866,106.386873 406.271227,107.429579 C405.789587,108.472285 405.074744,109.241312 404.126696,109.73666 C403.178648,110.232007 402.008508,110.479681 400.616278,110.479681 L400.616278,110.479681 Z M430.12845,114.5 L430.12845,110.635545 L419.82617,110.635545 L419.82617,105.332603 L429.314096,105.332603 L429.314096,101.468148 L419.82617,101.468148 L419.82617,96.1826366 L430.085126,96.1826366 L430.085126,92.3181818 L415.138562,92.3181818 L415.138562,114.5 L430.12845,114.5 Z M446.314159,114.5 L453.965221,92.3181818 L448.757727,92.3181818 L443.394199,109.171165 L443.186379,109.171165 L437.822682,92.3181818 L432.615357,92.3181818 L440.266419,114.5 L446.314159,114.5 Z M471.615275,114.5 L471.615275,110.635545 L461.312995,110.635545 L461.312995,105.332603 L470.800921,105.332603 L470.800921,101.468148 L461.312995,101.468148 L461.312995,96.1826366 L471.571951,96.1826366 L471.571951,92.3181818 L456.625387,92.3181818 L456.625387,114.5 L471.615275,114.5 Z M489.499415,114.5 L489.499415,110.635545 L479.994227,110.635545 L479.994227,92.3181818 L475.306619,92.3181818 L475.306619,114.5 L489.499415,114.5 Z M502.60921,114.803267 C504.570405,114.803267 506.335147,114.357392 507.903437,113.465643 C509.471727,112.573893 510.712944,111.279226 511.627089,109.581641 C512.541234,107.884057 512.998306,105.82654 512.998306,103.409091 C512.998306,100.991642 512.541234,98.934125 511.627089,97.2365404 C510.712944,95.5389557 509.471727,94.2442886 507.903437,93.3525391 C506.335147,92.4607895 504.570405,92.0149148 502.60921,92.0149148 C500.639441,92.0149148 498.871483,92.4607895 497.305337,93.3525391 C495.73919,94.2442886 494.500117,95.5389557 493.588115,97.2365404 C492.676114,98.934125 492.220114,100.991642 492.220114,103.409091 C492.220114,105.817853 492.676114,107.871026 493.588115,109.56861 C494.500117,111.266195 495.73919,112.563034 497.305337,113.459127 C498.871483,114.35522 500.639441,114.803267 502.60921,114.803267 Z M502.60921,110.652976 C501.474102,110.652976 500.484507,110.37532 499.640425,109.820007 C498.796343,109.264695 498.141436,108.448734 497.675705,107.372124 C497.209973,106.295515 496.977108,104.974504 496.977108,103.409091 C496.977108,101.843678 497.209973,100.522667 497.675705,99.4460574 C498.141436,98.3694481 498.796343,97.5534871 499.640425,96.9981745 C500.484507,96.4428618 501.474102,96.1652055 502.60921,96.1652055 C503.744318,96.1652055 504.733913,96.4428618 505.577995,96.9981745 C506.422077,97.5534871 507.077012,98.3694481 507.5428,99.4460574 C508.008587,100.522667 508.241481,101.843678 508.241481,103.409091 C508.241481,104.974504 508.008587,106.295515 507.5428,107.372124 C507.077012,108.448734 506.422077,109.264695 505.577995,109.820007 C504.733913,110.37532 503.744318,110.652976 502.60921,110.652976 Z M521.151866,114.5 L521.151374,107.309 L525.094337,107.308239 C526.667327,107.308239 528.026517,107.03998 529.171908,106.503463 L529.453801,106.363745 C530.656038,105.734082 531.574499,104.856774 532.209182,103.73182 C532.843865,102.606866 533.161207,101.306417 533.161207,99.8304721 C533.161207,98.3633275 532.848547,97.0643731 532.223228,95.933609 C531.597909,94.8028449 530.693157,93.9175827 529.508971,93.2778223 C528.324786,92.638062 526.890755,92.3181818 525.206878,92.3181818 L525.206878,92.3181818 L516.464258,92.3181818 L516.464258,114.5 L521.151866,114.5 Z M521.151866,96.1565746 L524.314508,96.1565746 C525.221376,96.1565746 525.971223,96.3093081 526.564049,96.6147752 C527.156875,96.9202423 527.600239,97.3484321 527.894142,97.8993447 C528.188045,98.4502573 528.334996,99.0939664 528.334996,99.8304721 C528.334996,100.562691 528.188045,101.208233 527.894142,101.7671 C527.600239,102.325966 527.158342,102.762448 526.568449,103.076546 C525.978556,103.390644 525.232996,103.547693 524.33177,103.547693 L524.33177,103.547693 L521.151374,103.548 L521.151866,96.1565746 Z M551.209811,114.5 L551.209811,110.635545 L540.907532,110.635545 L540.907532,105.332603 L550.395458,105.332603 L550.395458,101.468148 L540.907532,101.468148 L540.907532,96.1826366 L551.166487,96.1826366 L551.166487,92.3181818 L536.219924,92.3181818 L536.219924,114.5 L551.209811,114.5 Z M559.588764,114.5 L559.588374,106.641 L563.010374,106.641 L567.213764,114.5 L572.386565,114.5 L567.683374,105.887 L567.886299,105.796134 C568.996057,105.276248 569.864641,104.54535 570.492052,103.60344 L570.64388,103.363567 C571.28003,102.305066 571.598105,101.037843 571.598105,99.561898 C571.598105,98.0946406 571.285445,96.8180251 570.660126,95.7320515 C570.034807,94.6460779 569.12935,93.8056063 567.943754,93.2106365 C566.758158,92.6156667 565.324832,92.3181818 563.643776,92.3181818 L563.643776,92.3181818 L554.901156,92.3181818 L554.901156,114.5 L559.588764,114.5 Z M559.588764,96.1565746 L562.751406,96.1565746 C563.655453,96.1565746 564.40389,96.2869129 564.996716,96.5475894 C565.589542,96.8082659 566.033612,97.1916934 566.328925,97.6978718 C566.624238,98.2040502 566.771894,98.8253923 566.771894,99.561898 C566.771894,100.294116 566.624943,100.904994 566.33104,101.394531 C566.037137,101.884068 565.594506,102.251249 565.003147,102.496074 C564.411787,102.740899 563.666961,102.863312 562.768668,102.863312 L562.768668,102.863312 L559.588374,102.864 L559.588764,96.1565746 Z M583.130862,114.811898 C584.938957,114.811898 586.483836,114.539685 587.7655,113.99526 C589.047165,113.450835 590.029511,112.681836 590.712539,111.688264 C591.395566,110.694692 591.73928,109.520633 591.74368,108.166085 C591.73928,107.243309 591.572811,106.4245 591.244271,105.709656 C590.915732,104.994812 590.453978,104.37347 589.859008,103.84563 C589.264038,103.317789 588.562197,102.87262 587.753485,102.510121 C586.944773,102.147622 586.056634,101.858063 585.089067,101.641443 L585.089067,101.641443 L583.09617,101.164881 C582.61532,101.056571 582.161886,100.925895 581.735868,100.772851 C581.30985,100.619807 580.933643,100.436781 580.607247,100.223772 C580.280852,100.010763 580.027029,99.7558682 579.84578,99.4590884 C579.66453,99.1623087 579.578249,98.8153511 579.586937,98.4182157 C579.591224,97.9401865 579.731293,97.5141403 580.007144,97.1400771 C580.282995,96.7660139 580.685574,96.4710393 581.214882,96.2551533 C581.744189,96.0392673 582.391536,95.9313244 583.156925,95.9313244 C584.278945,95.9313244 585.168861,96.1739493 585.826673,96.6591991 C586.484485,97.1444489 586.856715,97.8231895 586.943362,98.6954207 L586.943362,98.6954207 L591.440413,98.6954207 C591.421572,97.3769762 591.068099,96.2155526 590.379994,95.2111497 C589.691889,94.2067469 588.733349,93.4229403 587.504373,92.8597301 C586.275397,92.2965199 584.837811,92.0149148 583.191617,92.0149148 C581.572727,92.0149148 580.128231,92.2957865 578.858131,92.8575301 C577.588031,93.4192736 576.58941,94.2030801 575.862269,95.2089497 C575.135128,96.2148192 574.773757,97.3885406 574.778157,98.7301136 C574.773757,100.367733 575.312738,101.671398 576.395102,102.641108 C577.477465,103.610818 578.954453,104.323123 580.826067,104.778023 L580.826067,104.778023 L583.243572,105.375927 C584.049351,105.570884 584.731702,105.78787 585.290625,106.026885 C585.849548,106.265899 586.275227,106.554725 586.567663,106.893362 C586.860099,107.231999 587.008461,107.650429 587.012748,108.148654 C587.008461,108.688848 586.843853,109.164001 586.518924,109.574111 C586.193995,109.984221 585.738361,110.304101 585.152022,110.533751 C584.565683,110.763401 583.874645,110.878227 583.078908,110.878227 C582.267262,110.878227 581.543364,110.754037 580.907214,110.505658 C580.271064,110.257279 579.763109,109.885416 579.383348,109.390069 C579.003588,108.894721 578.788435,108.275861 578.73789,107.533489 L578.73789,107.533489 L574.197516,107.533489 C574.236552,109.132185 574.625395,110.471276 575.364045,111.550762 C576.102694,112.630248 577.133779,113.443642 578.457301,113.990945 C579.780822,114.538247 581.338676,114.811898 583.130862,114.811898 Z M187.151056,145.5 L187.151056,126.538702 L187.281027,126.538702 L195.310327,145.5 L196.581273,145.5 L204.610573,126.538702 L204.740544,126.538702 L204.740544,145.5 L206.04026,145.5 L206.04026,123.318182 L204.567249,123.318182 L196.018063,143.550257 L195.873537,143.550257 L187.324351,123.318182 L185.85134,123.318182 L185.85134,145.5 L187.151056,145.5 Z M225.059468,145.5 L225.059468,144.243608 L213.809818,144.243608 L213.809818,135.030179 L224.135282,135.030179 L224.135282,133.773618 L213.809818,133.773618 L213.809818,124.574574 L224.799525,124.574574 L224.799525,123.318182 L212.452224,123.318182 L212.452224,145.5 L225.059468,145.5 Z M243.010006,145.5 L243.010006,144.243608 L231.760356,144.243608 L231.760356,135.030179 L242.08582,135.030179 L242.08582,133.773618 L231.760356,133.773618 L231.760356,124.574574 L242.750063,124.574574 L242.750063,123.318182 L230.402762,123.318182 L230.402762,145.5 L243.010006,145.5 Z M255.328443,145.5 L255.328443,124.574574 L262.419171,124.574574 L262.419171,123.318182 L246.880289,123.318182 L246.880289,124.574574 L253.971018,124.574574 L253.971018,145.5 L255.328443,145.5 Z M275.546281,145.860976 C277.142043,145.860976 278.554892,145.5198 279.784827,144.83745 C281.014762,144.155099 281.980523,143.222451 282.682111,142.039506 C283.383698,140.856562 283.734491,139.511717 283.734491,138.004972 L283.734491,138.004972 L283.734491,123.318182 L282.376897,123.318182 L282.376897,137.932709 C282.376897,139.208393 282.087479,140.345053 281.508643,141.342686 C280.929807,142.34032 280.126538,143.126157 279.098838,143.700198 C278.071137,144.274239 276.886951,144.56126 275.546281,144.56126 C274.20561,144.56126 273.022017,144.274239 271.995501,143.700198 C270.968985,143.126157 270.165717,142.34032 269.585696,141.342686 C269.005675,140.345053 268.715665,139.208393 268.715665,137.932709 L268.715665,137.932709 L268.715665,123.318182 L267.358021,123.318182 L267.358021,138.004972 C267.353219,139.506866 267.7028,140.849313 268.406813,142.032314 C269.110826,143.215315 270.080197,144.149175 271.314927,144.833896 C272.549657,145.518616 273.960109,145.860976 275.546281,145.860976 Z M291.504006,145.5 L291.503374,136.648 L296.991583,136.647547 C298.277929,136.647547 299.397376,136.404355 300.349924,135.917972 L300.605572,135.779293 C301.61161,135.200457 302.384812,134.409176 302.925175,133.40545 C303.465539,132.401724 303.735721,131.263259 303.735721,129.990057 C303.735721,128.707151 303.464947,127.563864 302.923398,126.560195 C302.38185,125.556525 301.607436,124.765272 300.600156,124.186436 C299.592876,123.6076 298.385224,123.318182 296.977198,123.318182 L296.977198,123.318182 L290.146412,123.318182 L290.146412,145.5 L291.504006,145.5 Z M291.504006,124.574574 L296.948259,124.574574 C298.09149,124.574574 299.068674,124.806255 299.879812,125.269617 C300.69095,125.73298 301.312546,126.372627 301.7446,127.18856 C302.176654,128.004493 302.392681,128.938325 302.392681,129.990057 C302.392681,131.03705 302.176654,131.966708 301.7446,132.779031 C301.312546,133.591353 300.692163,134.229788 299.883451,134.694335 C299.074739,135.158881 298.101136,135.391155 296.962644,135.391155 L296.962644,135.391155 L291.503374,135.392 L291.504006,124.574574 Z"
            fill="#000000" fill-rule="nonzero"></path>
    </g>
</svg>