<?xml version="1.0" encoding="UTF-8"?>
<svg width="74px" height="119px" viewBox="0 0 74 119" version="1.1"
    xmlns="http://www.w3.org/2000/svg" xmlns:xlink="http://www.w3.org/1999/xlink">
    <path
        d="M37.0354473,8.5 C44.3475214,8.5 51.4754535,11.9397364 56.7674583,17.238698 C62.0656065,22.5438112 65.5,29.6890349 65.5,37 C65.5,43.5757534 61.3961669,52.2238247 56.0828366,63.175983 C50.133687,75.4387307 42.7230301,90.6934893 38.4622878,109.334237 C37.9502393,111.574449 37.5004126,113.790379 37.1049401,115.976248 C36.6368178,113.801777 36.1197584,111.599942 35.5472606,109.373562 C30.9129704,91.3513219 23.8724556,76.490324 18.1674641,64.4363937 C12.698765,52.8817194 8.5,43.8245609 8.5,37 C8.5,29.6933554 11.9479936,22.5517469 17.2595164,17.2471882 C22.5702593,11.9434085 29.7200576,8.5 37.0354473,8.5 L37.0354473,8.5 Z"
        id="marker" stroke="#FFFFFF" stroke-width="3" fill="#D8D8D8" stroke-linejoin="round"></path>
    <path
        d="M37,16.3825085 L54.7392473,26.693446 L54.7392473,47.306554 L37,57.6174915 L19.2607527,47.306554 L19.2607527,26.693446 L37,16.3825085 Z"
        id="hex" stroke="#FFFFFF" stroke-width="1.5" fill="#551A6A"></path>
    <path
        d="M41.4375626,31.3955944 L34.9928083,42.6607939 L32.9854841,42.6607939 L39.4302384,31.3955944 L41.4375626,31.3955944 Z M42.4485326,33.8289912 L48.2376843,36.3403868 L48.2376843,37.7280112 L42.4485326,40.2394067 L42.4485326,38.5768699 L46.4920887,37.0458926 L46.4920887,37.0225053 L42.4485326,35.491528 L42.4485326,33.8289912 Z M31.5454804,33.8172976 L31.5454804,35.4798344 L27.5019243,37.0108117 L27.5019243,37.034199 L31.5454804,38.5651763 L31.5454804,40.2277131 L25.7563287,37.7163176 L25.7563287,36.3286931 L31.5454804,33.8172976 Z"
        id="symbol" fill="#FFFFFF"></path>
</svg>