<?xml version="1.0" encoding="UTF-8"?>
<svg width="74px" height="119px" viewBox="0 0 74 119" version="1.1"
    xmlns="http://www.w3.org/2000/svg" xmlns:xlink="http://www.w3.org/1999/xlink">
    <path
        d="M37.0354473,8.5 C44.3475214,8.5 51.4754535,11.9397364 56.7674583,17.238698 C62.0656065,22.5438112 65.5,29.6890349 65.5,37 C65.5,43.5757534 61.3961669,52.2238247 56.0828366,63.175983 C50.133687,75.4387307 42.7230301,90.6934893 38.4622878,109.334237 C37.9502393,111.574449 37.5004126,113.790379 37.1049401,115.976248 C36.6368178,113.801777 36.1197584,111.599942 35.5472606,109.373562 C30.9129704,91.3513219 23.8724556,76.490324 18.1674641,64.4363937 C12.698765,52.8817194 8.5,43.8245609 8.5,37 C8.5,29.6933554 11.9479936,22.5517469 17.2595164,17.2471882 C22.5702593,11.9434085 29.7200576,8.5 37.0354473,8.5 L37.0354473,8.5 Z"
        id="marker" stroke="#FFFFFF" stroke-width="3" fill="#D8D8D8" stroke-linejoin="round"></path>
    <circle fill="white" cx="37" cy="37" r="20" />
    <g transform="scale(.45) translate(33 32)">
        <defs><style><![CDATA[
        #k { fill: #2a2b36; }
        #r { fill: #fd4d69; }
        #g { fill: #49d773; }
        #b { fill: #459bc9; }
        ]]></style></defs>
        <path id="k" d="M39.85,17.02l9.7,67.48c-16.71-.19-31.25-12.53-33.7-29.58-2.45-17.06,8.03-33,24-37.89Z"/>
        <path id="r" d="M72.26,23.65c-5.94-5.02-13.55-8.02-21.67-8.15l3.77,26.19,17.91-18.03Z"/>
        <path id="g" d="M82.85,60.57c1.56-4.84,2.08-10.1,1.31-15.48-.76-5.29-2.69-10.13-5.47-14.29l-18.13,18.26,22.3,11.51Z"/>
        <path id="b" d="M56.68,57.87l3.6,25.07c7.68-2.39,14.08-7.34,18.37-13.73l-21.97-11.33Z"/>
    </g>
</svg>