<?xml version="1.0" encoding="iso-8859-1"?>
<!-- Uploaded to: SVG Repo, www.svgrepo.com, Generator: SVG Repo Mixer Tools -->
<svg height="800px" width="800px" version="1.1" id="Capa_1" xmlns="http://www.w3.org/2000/svg" xmlns:xlink="http://www.w3.org/1999/xlink" 
	 viewBox="0 0 495.622 495.622" xml:space="preserve">
<g>
	<path style="fill:#030104;" d="M495.622,113.089v150.03c0,0-32.11,6.326-38.725,7.158c-6.594,0.83-27.316,7.521-42.334-6.914
		c-23.16-22.197-105.447-104.03-105.447-104.03s-14.188-13.922-36.969-1.89c-20.912,11.022-51.911,27.175-64.859,33.465
		c-24.477,13.028-44.764-7.642-44.764-23.387c0-12.213,7.621-20.502,18.515-26.598c29.524-17.898,91.752-52.827,117.67-66.598
		c15.754-8.379,27.105-9.097,48.734,9.124c26.638,22.403,50.344,42.824,50.344,42.824s7.732,6.453,20.063,3.854
		C448.13,123.725,495.622,113.089,495.622,113.089z M168.098,367.3c3.985-10.238,2.653-21.689-4.987-29.545
		c-6.865-7.027-16.888-8.879-26.445-6.689c2.673-9.479,1.197-19.568-5.705-26.688c-6.886-7.009-16.89-8.898-26.446-6.688
		c2.653-9.465,1.181-19.553-5.725-26.652c-10.814-11.092-29.519-10.616-41.807,1.097c-12.223,11.729-20.053,32.979-9.144,45.487
		c10.891,12.445,23.405,4.873,32.945,2.699c-2.654,9.465-10.606,18.269-0.813,30.658c9.784,12.395,23.404,4.875,32.954,2.721
		c-2.663,9.429-10.268,19.117-0.851,30.604c9.502,11.522,25.065,5.383,35.344,2.19c-3.967,10.199-12.458,21.193-1.549,33.513
		c10.892,12.409,36.063,6.668,48.358-5.063c12.262-11.729,13.439-30.318,2.654-41.445
		C189.435,365.865,178.335,364.089,168.098,367.3z M392.442,289.246c-88.88-88.881-47.075-47.058-94.906-94.992
		c0,0-14.375-14.311-33.321-5.998c-13.3,5.828-30.423,13.771-43.307,19.835c-14.158,7.424-24.347,9.722-29.131,9.69
		c-27.37-0.179-49.576-22.178-49.576-49.521c0-17.738,9.417-33.181,23.462-41.947c19.75-13.667,65.21-37.847,65.21-37.847
		s-13.849-17.549-44.187-17.549c-30.329,0-93.695,41.512-93.695,41.512s-17.976,11.514-43.601,1.143L0,96.373V268.05
		c0,0,14.103,4.082,26.775,9.258c2.862-8.162,7.48-15.699,13.886-21.924c21.023-20.024,55.869-20.232,74.996-0.537
		c5.762,5.987,9.783,13.129,11.835,21.024c7.707,2.379,14.688,6.593,20.298,12.373c5.779,5.947,9.785,13.129,11.854,20.984
		c7.698,2.381,14.669,6.611,20.298,12.395c6.339,6.537,10.562,14.433,12.534,22.988c8.047,2.344,15.319,6.705,21.176,12.693
		c11.495,11.807,15.575,27.826,13.103,43.278c0.02,0,0.058,0,0.076,0.035c0.188,0.246,7.122,7.976,11.446,12.336
		c8.474,8.482,22.311,8.482,30.811,0c8.444-8.479,8.481-22.289,0-30.811c-0.304-0.303-30.572-31.963-28.136-34.418
		c2.418-2.438,40.981,37.688,41.699,38.422c8.463,8.465,22.291,8.465,30.792,0c8.481-8.479,8.463-22.289,0-30.791
		c-0.416-0.396-2.152-2.059-2.796-2.721c0,0-38.234-34.06-35.324-36.97c2.946-2.928,50.438,41.392,50.515,41.392
		c8.537,7.688,21.687,7.631,29.9-0.586c7.991-7.99,8.162-20.629,1.078-29.146c-0.15-0.453-36.194-38.121-33.381-40.955
		c2.854-2.871,38.519,33.853,38.594,33.929c8.444,8.463,22.291,8.463,30.792,0c8.463-8.464,8.463-22.291,0-30.83
		C392.706,289.396,392.555,289.32,392.442,289.246z"/>
</g>
</svg>