<?xml version="1.0" encoding="iso-8859-1"?>
<!-- Uploaded to: SVG Repo, www.svgrepo.com, Generator: SVG Repo Mixer Tools -->
<!DOCTYPE svg PUBLIC "-//W3C//DTD SVG 1.1//EN" "http://www.w3.org/Graphics/SVG/1.1/DTD/svg11.dtd">
<svg fill="#000000" height="800px" width="800px" version="1.1" id="Capa_1" xmlns="http://www.w3.org/2000/svg" xmlns:xlink="http://www.w3.org/1999/xlink" 
	 viewBox="0 0 314 314" xml:space="preserve">
<path d="M254.217,135.559c0-3.866-3.134-7-7-7h-19.805V74.012C227.412,33.201,195.826,0,157.001,0
	c-38.826,0-70.413,33.201-70.413,74.012v54.547H66.783c-3.866,0-7,3.134-7,7c0,47.963,32.466,88.205,75.804,98.347v40.544H116.05
	c-11.736,0-21.284,8.871-21.284,19.775S104.313,314,116.05,314h81.9c11.736,0,21.285-8.871,21.285-19.775
	s-9.549-19.775-21.285-19.775h-19.537v-40.543C221.751,223.764,254.217,183.521,254.217,135.559z M157.001,14
	c24.9,0,46.069,17.259,53.53,41.117h-27.854c-3.866,0-7,3.134-7,7s3.134,7,7,7h30.532c0.123,1.616,0.203,3.245,0.203,4.895v23.775
	h-30.735c-3.866,0-7,3.134-7,7c0,3.866,3.134,7,7,7h30.735v23.771c0,1.649-0.08,3.279-0.203,4.896h-30.532c-3.866,0-7,3.134-7,7
	s3.134,7,7,7h27.854c-7.461,23.858-28.63,41.117-53.53,41.117c-24.901,0-46.07-17.259-53.531-41.117h27.853c3.866,0,7-3.134,7-7
	s-3.134-7-7-7h-30.532c-0.123-1.616-0.203-3.246-0.203-4.896v-23.773h30.735c3.866,0,7-3.134,7-7c0-3.866-3.134-7-7-7h-30.735
	V74.012c0-1.649,0.08-3.278,0.203-4.895h30.532c3.866,0,7-3.134,7-7s-3.134-7-7-7h-27.854C110.93,31.259,132.1,14,157.001,14z
	 M74.051,142.559h12.86c3.368,37.539,33.511,67.013,70.09,67.013c36.578,0,66.721-29.474,70.088-67.013h12.86
	c-3.427,44.611-39.32,79.816-82.948,79.816C113.372,222.375,77.478,187.17,74.051,142.559z M205.235,294.225
	c0,3.131-3.336,5.775-7.285,5.775h-81.9c-3.948,0-7.284-2.645-7.284-5.775c0-3.131,3.336-5.775,7.284-5.775h81.9
	C201.899,288.449,205.235,291.094,205.235,294.225z M164.413,274.449h-14.826v-38.365c2.447,0.192,4.92,0.291,7.414,0.291
	c2.493,0,4.965-0.099,7.412-0.291V274.449z"/>
</svg>